<svg width="45" height="27" viewBox="0 0 45 27" fill="none" xmlns="http://www.w3.org/2000/svg">
<g clip-path="url(#clip0_5330_36804)">
<path fill-rule="evenodd" clip-rule="evenodd" d="M8.22686 7.83744C8.00954 7.96971 7.71461 7.98624 7.41969 7.96971C6.58147 8.15158 5.63459 8.16812 4.79637 8.36652C4.45487 8.43266 4.11337 8.48226 3.74083 8.4988C3.67874 8.58147 3.57008 8.598 3.43038 8.5484C3.11993 8.66414 2.77843 8.74681 2.42141 8.76334C2.01782 8.92868 1.45901 8.87908 1.41244 9.44123C1.41244 9.54044 1.49005 9.5735 1.49005 9.65617C1.64528 10.0034 2.0023 10.1853 2.46798 10.1853C2.45245 10.3671 2.31275 10.3175 2.20409 10.3175C2.09544 10.3671 2.01782 10.4663 1.87812 10.4333C1.64528 11.2434 2.17305 11.4914 2.85604 11.508C3.16649 11.4418 3.52351 11.4749 3.69426 11.5245C3.4459 11.6403 3.16649 11.7064 2.87157 11.7064C2.28171 11.8717 1.62976 11.9544 0.993331 12.0205C0.838105 11.9213 0.822583 12.0701 0.698402 12.004C0.729447 12.0867 0.729447 12.2024 0.682879 12.3512C0.465563 12.3512 0.698402 12.004 0.481085 12.1528C0.325859 12.1528 0.217201 12.2851 0.0774979 12.3181C-0.000115032 12.5166 0.0464528 12.6323 0.0464528 12.7811C0.170634 12.8803 0.170634 13.0622 0.263769 13.1779C0.884673 13.3763 1.44349 13.4094 1.97125 13.4259C1.97125 13.4094 1.98678 13.3763 1.98678 13.3598C2.20409 13.459 2.32827 13.3763 2.51455 13.4259C3.16649 13.3433 3.84949 13.3598 4.53248 13.3433C4.99816 13.2771 5.54145 13.3433 6.00713 13.2606C6.31758 13.2275 6.61251 13.1779 6.96953 13.244C7.00058 13.1779 7.07819 13.211 7.1558 13.2275C7.23341 13.0952 7.46625 13.2606 7.45073 12.963C7.57491 12.963 7.59043 13.0456 7.66805 13.0952C7.8388 13.1944 7.85432 13.0291 8.02507 13.1283L7.8388 13.4259C7.73014 13.4921 7.55939 13.459 7.40416 13.4425C7.27998 13.4755 7.17132 13.5417 7.0161 13.5417C5.88295 13.6574 4.51696 13.8062 3.35277 14.0046C2.42141 14.2196 1.10199 14.2196 0.558698 14.4841C0.418995 14.5502 0.263769 14.6164 0.232724 14.8809C0.325859 15.3108 0.636311 15.6911 1.08647 15.7241C1.11751 15.7407 1.16408 15.7407 1.19512 15.7572C1.11751 16.1871 1.5211 16.2698 1.35035 16.7493C1.00885 16.8485 0.636311 16.8815 0.279292 16.9477C0.0154075 17.3775 0.434518 17.609 0.418995 18.0058C0.760492 18.0389 1.00885 18.0389 1.28826 18.1712C1.50558 18.072 1.83155 18.1546 2.12648 18.1877C2.43693 18.1216 2.99575 18.0554 3.27515 18.2208C3.01127 18.3861 2.68529 18.4688 2.31275 18.4357C2.09544 18.5515 1.81603 18.5349 1.59871 18.6507C1.47453 19.3947 1.8626 19.8742 2.6232 19.808C2.91813 19.6923 3.57008 19.7419 3.69426 20.2214C3.72531 20.3867 3.81844 20.5025 3.77188 20.7174C3.57008 20.767 3.38381 20.8497 3.15097 20.8331C2.09544 21.015 0.977808 21.1142 0.0464528 21.511C-0.108773 21.9079 0.186156 21.9575 0.124066 22.2881C0.232724 22.5692 0.512131 22.4204 0.80706 22.5362C1.36587 22.4865 1.98678 22.5362 2.56111 22.5196C3.05784 22.5692 3.74083 22.2716 4.09785 22.6684C4.09785 22.685 4.09785 22.7015 4.08233 22.7346C4.1289 23.5943 5.04473 23.2306 5.65011 23.3629C5.86743 23.3132 6.08474 23.2636 6.37967 23.3463C6.23997 23.5943 5.91399 23.4951 5.83638 23.8919L6.41072 24.0903C6.65908 24.3218 6.96953 24.173 7.32655 24.3384C8.04059 24.2392 9.17374 24.1069 9.22031 25.1155C9.68598 25.3139 9.9033 25.0493 10.3069 25.132C10.8657 25.1485 11.3779 25.0659 11.9523 25.0989C12.2006 24.9832 12.4956 24.9666 12.8215 24.9832C13.8616 24.884 14.8705 24.7352 15.9571 24.7186C16.19 24.6856 16.3607 24.4872 16.7022 24.636L12.5577 25.4792C12.4645 25.9587 12.8836 26.7192 13.132 26.9673C18.6736 25.9091 24.7274 26.091 30.2689 24.9005C31.2003 24.7021 32.4421 24.3549 33.5287 24.3384C33.4821 23.925 33.6373 23.3794 33.3579 23.1314C31.0916 23.7101 28.7943 24.2061 26.3573 24.4872C26.0158 24.6194 25.3948 24.669 25.0689 24.5533C25.1931 24.421 25.3328 24.3053 25.5346 24.3384C25.6587 24.2061 25.8761 24.2557 26.0468 24.2061C26.2331 24.1069 26.4504 24.0407 26.6832 24.0407C26.6987 23.9746 26.7608 24.0077 26.8074 24.0077C26.9626 23.8754 27.242 23.9581 27.3817 23.8258C31.014 22.8338 34.3048 22.7676 37.9216 21.726C37.9526 21.4118 38.6046 20.3702 38.3252 20.1057L39.5049 19.527C39.5204 19.4939 39.5515 19.4939 39.567 19.4443C39.5825 19.3451 39.4118 19.3782 39.3497 19.3451C39.3807 19.2128 39.241 19.1963 39.1479 19.1632C39.0858 19.2128 38.9771 19.1632 38.8685 19.1301C38.8685 19.1467 38.8685 19.1632 38.8529 19.1798C38.7753 19.1632 38.6977 19.1467 38.6201 19.1136C38.527 19.1797 38.4028 19.1963 38.2476 19.1467C38.1855 19.2128 38.0302 19.0971 37.9682 19.1632C37.6887 19.2128 37.4249 19.2459 37.1144 19.2128C37.0058 19.2459 36.9126 19.3286 36.7419 19.2459C36.509 19.3286 36.2141 19.2624 35.9657 19.312C35.9347 19.4112 35.795 19.2955 35.7329 19.2955L35.9036 19.064C35.9968 18.9813 36.121 18.9317 36.2762 18.9813C36.4469 18.9813 36.5556 18.8491 36.7729 18.9317C36.8195 18.816 36.9747 18.8987 37.0678 18.8656C37.3783 18.8325 37.6422 18.7333 37.9837 18.7499C38.3873 18.6672 38.8219 18.6507 39.2255 18.5845C39.6601 18.5515 40.0171 18.4192 40.4673 18.4192C40.638 18.2704 40.9795 18.4192 41.0882 18.1712C41.1658 17.7082 40.607 17.3941 40.25 17.576C40.2189 17.5594 40.2034 17.5594 40.1724 17.5594C39.9861 17.4933 39.8774 17.5925 39.6912 17.5264C39.6756 17.5264 39.6601 17.5264 39.6601 17.5098C39.5825 17.576 39.4273 17.4767 39.3341 17.5098C39.2876 17.609 39.1168 17.4767 39.0237 17.4767C39.0703 17.4106 39.1789 17.4271 39.241 17.3941C39.3652 17.361 39.5049 17.3775 39.6446 17.361C39.6446 17.3445 39.6446 17.3279 39.6601 17.3114C40.2345 17.2618 40.7622 17.1461 41.321 17.0799C41.4607 17.0138 41.678 17.0634 41.8022 16.9311C41.9109 16.617 41.678 16.5508 41.647 16.3359C41.1813 16.2202 40.7777 16.2202 40.3742 16.2202C40.2965 16.2698 40.1879 16.2698 40.0482 16.2202C39.8619 16.1871 39.7533 16.3194 39.5204 16.2202C39.1789 16.2202 38.8685 16.2863 38.4959 16.2698C38.3252 16.3359 38.0613 16.2863 37.9061 16.3855C37.8905 16.4351 37.8284 16.402 37.7819 16.402C37.4559 16.2863 37.1455 16.5508 36.866 16.3359C37.2852 16.1706 37.7819 16.154 38.3252 16.0879C38.7132 16.0548 39.0547 15.9391 39.4428 15.9226C39.5825 15.8399 39.7843 15.8234 39.9861 15.8399C40.5449 15.7076 41.1813 15.7076 41.7401 15.5753C41.973 15.5257 42.2058 15.4927 42.4387 15.4927C42.4852 15.4431 42.5628 15.4265 42.6405 15.4596C42.8578 15.3935 43.0751 15.3273 43.3234 15.3108C43.5873 15.1951 43.9599 15.2281 43.9909 14.8478C43.9909 14.7817 43.9444 14.7652 43.9444 14.699C43.8357 14.4676 43.6029 14.3353 43.2924 14.3353C43.3079 14.2196 43.4011 14.2526 43.4787 14.2526C43.5408 14.2196 43.6029 14.1534 43.696 14.17C43.8512 13.6409 43.4942 13.4755 43.044 13.4425C42.8267 13.4921 42.5939 13.459 42.4852 13.4259C42.6405 13.3433 42.8267 13.3102 43.0285 13.2937C43.4321 13.1779 43.8512 13.1283 44.2858 13.0787C44.379 13.1448 44.3945 13.0456 44.4876 13.0787C44.4566 13.0126 44.4566 12.9464 44.4876 12.8472C44.6429 12.8472 44.4721 13.0787 44.6273 12.9795C44.736 12.9795 44.7981 12.8968 44.8912 12.8638C44.9378 12.7315 44.9068 12.6488 44.9223 12.5496C44.8291 12.4835 44.8447 12.3677 44.7826 12.2851C44.3635 12.1528 43.9909 12.1363 43.6494 12.1197C43.6494 12.1363 43.6494 12.1528 43.6339 12.1693C43.4942 12.1032 43.4011 12.1528 43.2769 12.1197C42.8422 12.1693 42.3921 12.1693 41.9264 12.1693C41.616 12.2024 41.2589 12.1693 40.9485 12.2355C40.7467 12.252 40.5449 12.2851 40.2965 12.2355C40.281 12.2851 40.2189 12.252 40.1724 12.252C40.1258 12.3512 39.9706 12.2355 39.9706 12.4339C39.893 12.4339 39.8774 12.3843 39.8309 12.3512C39.7222 12.2851 39.7067 12.4008 39.598 12.3347C39.21 12.3843 38.7908 12.3512 38.4028 12.4339C38.2941 12.4504 38.0458 12.4339 37.8905 12.5331C37.7664 12.5 37.6577 12.5827 37.5801 12.4504C37.6422 12.3347 37.7974 12.4008 37.9061 12.4008C37.9992 12.3181 38.201 12.4174 38.3096 12.3677C38.6977 12.2189 39.1944 12.2189 39.6912 12.1363C39.7688 12.0867 39.8774 12.1197 39.9861 12.1197C40.0637 12.0867 40.1413 12.0536 40.25 12.0536C41.0106 11.9709 41.9264 11.8717 42.687 11.7395C43.3079 11.6403 44.1927 11.6403 44.5653 11.4584C44.6584 11.4088 44.7515 11.3757 44.7826 11.1938C44.7205 10.9128 44.5187 10.6482 44.2082 10.6317C44.1772 10.6317 44.1617 10.6151 44.1306 10.6151C44.1927 10.3341 43.9133 10.2679 44.022 9.95379C44.2393 9.88765 44.5032 9.87112 44.736 9.82151C44.9223 9.54044 44.6273 9.39163 44.6429 9.11055C44.4256 9.09402 44.2548 9.09402 44.0685 8.99482C43.9288 9.06095 43.7115 9.01135 43.5097 8.97828C43.3079 9.01135 42.9354 9.07749 42.7491 8.96175C42.9199 8.84601 43.1372 8.79641 43.3855 8.81294C43.5252 8.73027 43.727 8.74681 43.8667 8.66414C43.9599 8.16812 43.696 7.85397 43.1837 7.88704C42.982 7.96971 42.5628 7.93664 42.4697 7.60596C42.4542 7.49022 42.3766 7.42409 42.4231 7.27528C42.5628 7.24221 42.687 7.19261 42.8422 7.20914C43.5408 7.07687 44.2858 7.02727 44.9223 6.76273C45.0309 6.49818 44.8291 6.46511 44.8602 6.25017C44.7826 6.05177 44.6118 6.1675 44.41 6.08483C44.0375 6.1179 43.6184 6.08483 43.2303 6.08483C42.9043 6.05177 42.4542 6.25017 42.2058 5.98563C42.2058 5.9691 42.2058 5.95256 42.2213 5.93603C42.1903 5.35734 41.5849 5.60535 41.1813 5.52268C41.0416 5.55575 40.8864 5.58881 40.7001 5.52268C40.7933 5.35734 41.0106 5.42347 41.0571 5.15893C41.0882 4.97706 40.9019 4.94399 40.933 4.76211C40.9174 4.76211 40.9019 4.76212 40.8864 4.74558C41.1503 4.28263 41.0727 3.77008 40.5915 3.62127C40.8088 3.37326 40.6536 3.19139 40.6536 2.91031C40.5915 2.7615 40.3897 2.62923 40.2189 2.6623C40.0792 2.6623 40.0016 2.72843 39.8153 2.64576C39.7377 2.36469 39.7688 2.01747 39.5359 1.8356C39.3652 1.68679 39.1634 1.786 38.9306 1.67026C38.4494 1.7364 37.6887 1.81907 37.6732 1.15771C37.3628 1.02543 37.2231 1.19077 36.9437 1.14117C36.5711 1.12464 36.2296 1.19077 35.8571 1.17424C35.6863 1.24038 35.4845 1.25691 35.2827 1.24038C34.5842 1.30651 33.9168 1.40572 33.1872 1.40572C33.032 1.43878 32.9233 1.55452 32.6905 1.45532C31.9454 1.48839 31.2313 1.62066 30.4707 1.63719C30.1913 1.68679 29.8809 1.71986 29.5704 1.71986C29.6636 1.58759 29.8188 1.57106 29.974 1.55452C31.6505 1.04197 33.4976 0.860094 35.2983 0.59555C35.3604 0.281405 35.2517 0.0664629 35.0809 -0.098877C32.1317 0.463279 28.9495 0.496347 25.9071 0.893162C25.9071 0.876628 25.9226 0.860094 25.9226 0.827026C25.7674 0.000326946 24.7895 -0.082343 24.091 0.0664629C23.6874 0.132599 23.3303 0.281405 22.8957 0.297939C22.4921 0.364075 22.1196 0.479813 21.7005 0.529415C21.6229 0.628618 21.4366 0.529415 21.3279 0.562482C21.1417 0.694754 20.8778 0.67822 20.6294 0.711288C20.3966 0.827026 20.0861 0.793958 19.8222 0.84356C19.0927 1.15771 18.2079 1.14117 17.5094 1.42225C17.4628 1.43878 17.4007 1.47185 17.3231 1.43878C17.1524 1.47185 16.9971 1.55452 16.7643 1.50492C16.4538 1.58759 16.1123 1.63719 15.7708 1.65373C14.9792 1.8356 14.172 1.96787 13.2872 1.95134C13.163 1.95134 13.0854 2.06708 12.9147 1.98441C12.6508 2.08361 12.3869 2.14975 12.0454 2.10014C11.8591 2.14975 11.6263 2.10014 11.4245 2.13321C10.9744 2.18281 10.5242 2.21588 10.074 2.24895C9.60837 2.13321 9.34449 2.39775 8.90985 2.34815C8.66149 2.39775 8.36656 2.34815 8.14925 2.49696C8.13372 2.54656 8.07163 2.54656 8.07163 2.6127C8.04059 2.7615 8.30447 2.7119 8.39761 2.77804C8.35104 2.97644 8.56836 2.99298 8.69254 3.05911C8.78567 2.99298 8.95642 3.05911 9.11165 3.09218C9.11165 3.07565 9.12717 3.04258 9.12717 3.02605C9.25135 3.05911 9.36001 3.09218 9.46867 3.12525C9.60837 3.02605 9.79464 3.00951 10.0275 3.07565C10.1206 2.99298 10.3535 3.14178 10.4621 3.05911C10.8657 2.99298 11.2693 2.94338 11.7505 2.99298C11.9212 2.94338 12.0454 2.82764 12.3093 2.94338C12.6508 2.82764 13.101 2.91031 13.4735 2.84417C13.5045 2.69537 13.7219 2.87724 13.8305 2.87724L14.3893 3.09218C14.3272 3.24099 14.141 3.17485 14.0013 3.19139C13.8616 3.20792 13.7684 3.30712 13.5666 3.20792C13.4114 3.32366 13.2407 3.38979 12.9923 3.32366C12.7439 3.32366 12.5887 3.5386 12.2472 3.40633C12.1851 3.5882 11.9523 3.45593 11.8126 3.489C11.3469 3.5386 10.9433 3.68741 10.4466 3.67087C9.84121 3.80314 9.18926 3.81968 8.58388 3.91888C7.94745 3.96848 7.38864 4.18343 6.72117 4.18343C6.45728 4.39837 5.96056 4.16689 5.78981 4.54717C5.66563 5.22507 6.50385 5.72109 7.06267 5.44001C7.10923 5.45654 7.14028 5.45654 7.17132 5.47308C7.45073 5.57228 7.60596 5.42347 7.88536 5.52268C7.90089 5.52268 7.91641 5.53921 7.94745 5.53921C8.05611 5.44001 8.30447 5.60535 8.42865 5.53921C8.50627 5.40694 8.75463 5.60535 8.89433 5.60535C8.81672 5.70455 8.66149 5.67148 8.56836 5.72109C8.38209 5.77069 8.16477 5.75415 7.94745 5.77069C7.94745 5.78722 7.93193 5.82029 7.93193 5.83682C7.07819 5.90296 6.27101 6.08483 5.43279 6.20057C5.21548 6.31631 4.8895 6.21711 4.71875 6.41551C4.56353 6.87846 4.8895 6.9942 4.95159 7.29181C5.65011 7.45715 6.25549 7.47369 6.86087 7.45715C6.96953 7.37448 7.1558 7.39102 7.34207 7.45715C7.62148 7.49022 7.77671 7.30835 8.13372 7.45715L8.22686 7.83744Z" fill="#64748B"/>
<path d="M15.6002 5.83679H10.2139V7.12644H15.6002V5.83679Z" fill="white"/>
<path d="M15.6002 7.49017H10.2139V8.77982H15.6002V7.49017Z" fill="white"/>
<path d="M14.6534 9.14355H11.0056V10.4001H14.6534V9.14355Z" fill="white"/>
<path d="M14.6534 10.7639H11.0056V12.037H14.6534V10.7639Z" fill="white"/>
<path d="M14.6534 12.3843H11.0056V13.6574H14.6534V12.3843Z" fill="white"/>
<path d="M14.6534 14.0211H11.0056V15.2777H14.6534V14.0211Z" fill="white"/>
<path d="M14.6534 15.6414H11.0056V16.8979H14.6534V15.6414Z" fill="white"/>
<path d="M15.6002 17.2618H10.2139V18.5184H15.6002V17.2618Z" fill="white"/>
<path d="M15.6002 18.849H10.2139V20.1056H15.6002V18.849Z" fill="white"/>
<path d="M37.2697 5.83679H26.0469V7.12644H37.2697V5.83679Z" fill="white"/>
<path d="M37.2542 7.49017H26.0159V8.77982H37.2542V7.49017Z" fill="white"/>
<path d="M33.4511 9.14355H29.8188V10.4001H33.4511V9.14355Z" fill="white"/>
<path d="M37.3009 9.14355H34.8018V10.1852H37.3009V9.14355Z" fill="white"/>
<path d="M28.4994 9.14355H26.0002V10.1852H28.4994V9.14355Z" fill="white"/>
<path d="M33.4511 10.7639H29.8188V12.037H33.4511V10.7639Z" fill="white"/>
<path d="M33.4511 12.3843H29.8188V13.6574H33.4511V12.3843Z" fill="white"/>
<path d="M33.4511 14.0211H29.8188V15.2777H33.4511V14.0211Z" fill="white"/>
<path d="M33.4511 15.6414H29.8188V16.8979H33.4511V15.6414Z" fill="white"/>
<path d="M34.3359 17.2618H28.9651V18.5184H34.3359V17.2618Z" fill="white"/>
<path d="M34.3359 18.849H28.9651V20.1056H34.3359V18.849Z" fill="white"/>
<path d="M25.4414 9.14355H22.2283V10.2183H25.4414V9.14355Z" fill="white"/>
<path d="M20.319 15.7571H16.9041V16.8319H20.319V15.7571Z" fill="white"/>
<path d="M25.4104 7.1262H16.9351C16.9351 7.1262 17.587 5.83655 19.31 5.83655H25.4104V7.1262Z" fill="white"/>
<path d="M25.4104 8.77958H16.6401V7.87021C16.6401 7.75447 16.7643 7.55607 16.8109 7.48993H25.4259V8.77958H25.4104Z" fill="white"/>
<path d="M16.9041 18.8322H25.6433C25.6433 18.8322 24.9603 20.1218 23.2062 20.1218H16.9196V18.8322H16.9041Z" fill="white"/>
<path d="M16.9041 17.1623H25.8451V18.2866C25.7985 18.4023 25.7985 18.3858 25.7675 18.4519H16.9041V17.1623Z" fill="white"/>
<path d="M20.2259 9.14337H16.6401V10.4H20.2259V9.14337Z" fill="white"/>
<path d="M17.4473 13.657H25.8761C25.8761 13.657 25.6743 12.8469 25.2397 12.3839H16.7178C16.7178 12.3839 16.9196 13.161 17.4473 13.657Z" fill="white"/>
<path d="M24.8827 12.0367C24.8827 12.0367 24.4326 11.6895 23.8893 11.5242H20.2415V10.7636H16.6558V12.0367H24.8827Z" fill="white"/>
<path d="M25.8605 15.5916H22.2126V16.8647H25.8605V15.5916Z" fill="white"/>
<path d="M25.8607 14.0209V13.9382H17.8044C17.8044 13.9382 18.1459 14.2358 18.6892 14.3681H22.2129V15.1948H25.8762V14.0209H25.8607Z" fill="white"/>
</g>
<defs>
<clipPath id="clip0_5330_36804">
<rect width="45" height="27" fill="white" transform="translate(0 0.000488281)"/>
</clipPath>
</defs>
</svg>
